<?xml version="1.0" standalone="no"?>
<!DOCTYPE svg PUBLIC "-//W3C//DTD SVG 20010904//EN"
 "http://www.w3.org/TR/2001/REC-SVG-20010904/DTD/svg10.dtd">
<svg version="1.0" xmlns="http://www.w3.org/2000/svg"
 width="584.000000pt" height="584.000000pt" viewBox="0 0 584.000000 584.000000"
 preserveAspectRatio="xMidYMid meet">
<metadata>
Created by potrace 1.11, written by Peter Selinger 2001-2013
</metadata>
<g transform="translate(0.000000,584.000000) scale(0.100000,-0.100000)"
fill="#000000" stroke="none">
<path d="M3675 5807 c-16 -16 -23 -26 -15 -23 11 5 10 3 -2 -6 -9 -8 -20 -32
-23 -53 -4 -22 -11 -45 -16 -51 -5 -6 -61 -10 -148 -9 -95 1 -138 -2 -133 -10
4 -7 1 -7 -9 1 -17 12 -537 13 -556 1 -7 -5 -19 -5 -25 0 -20 12 -378 10 -370
-2 4 -6 1 -6 -9 1 -17 12 -537 13 -556 1 -7 -5 -19 -5 -25 0 -19 11 -378 11
-371 -1 4 -5 1 -6 -8 0 -8 5 -121 9 -252 9 -186 0 -236 -3 -232 -12 2 -7 0
-13 -6 -13 -6 0 -7 -6 -3 -12 10 -16 13 -48 4 -48 -10 0 -6 -44 5 -52 6 -5 5
-8 -3 -8 -8 0 -10 -5 -6 -12 10 -16 13 -48 4 -48 -9 0 -6 -32 4 -48 4 -7 2
-12 -4 -12 -6 0 -8 -5 -4 -12 10 -16 13 -48 4 -48 -10 0 -6 -44 5 -52 6 -5 5
-8 -3 -8 -8 0 -10 -5 -6 -12 11 -18 12 -48 2 -48 -5 0 -4 -9 2 -20 6 -11 7
-20 2 -20 -12 0 -9 -43 3 -52 6 -5 5 -8 -3 -8 -8 0 -10 -5 -6 -12 10 -16 13
-48 4 -48 -9 0 -6 -32 4 -48 4 -7 2 -12 -4 -12 -6 0 -8 -5 -4 -12 10 -16 13
-48 4 -48 -10 0 -6 -44 5 -52 6 -5 5 -8 -3 -8 -8 0 -10 -5 -6 -12 10 -16 13
-48 4 -48 -9 0 -6 -32 4 -48 4 -7 2 -12 -4 -12 -6 0 -8 -5 -4 -12 10 -16 13
-48 4 -48 -10 0 -6 -44 5 -52 6 -5 5 -8 -3 -8 -8 0 -10 -5 -6 -12 10 -16 13
-48 4 -48 -9 0 -6 -32 4 -48 4 -7 2 -12 -4 -12 -6 0 -8 -5 -4 -12 10 -16 13
-48 4 -48 -10 0 -6 -44 5 -52 6 -5 5 -8 -3 -8 -8 0 -10 -5 -6 -12 10 -16 13
-48 4 -48 -8 0 -6 -37 3 -46 4 -4 2 -13 -4 -21 -9 -9 -8 -13 0 -13 8 0 9 -5 2
-18 -7 -13 -6 -23 1 -30 9 -9 9 -12 -1 -12 -7 0 -9 -5 -5 -12 10 -16 13 -48 4
-48 -10 0 -6 -44 5 -52 6 -5 5 -8 -3 -8 -8 0 -10 -5 -6 -12 10 -16 13 -48 4
-48 -8 0 -6 -37 3 -46 4 -4 2 -13 -4 -21 -9 -9 -8 -13 0 -13 8 0 9 -5 1 -19
-7 -13 -7 -22 0 -26 7 -4 7 -13 0 -26 -8 -13 -7 -19 0 -19 7 0 8 -6 0 -19 -7
-14 -7 -22 0 -26 8 -5 7 -11 -1 -21 -9 -11 -9 -14 1 -14 10 0 10 -3 1 -14 -8
-10 -9 -16 -1 -21 7 -4 7 -12 0 -26 -8 -13 -7 -19 0 -19 7 0 8 -6 0 -19 -7
-14 -7 -22 0 -26 8 -5 7 -11 -1 -21 -6 -8 -7 -14 -2 -14 5 0 10 -7 10 -15 0
-8 -3 -15 -7 -15 -10 0 -6 -44 5 -52 6 -5 5 -8 -3 -8 -8 0 -10 -5 -6 -12 10
-16 13 -48 4 -48 -9 0 -6 -32 4 -48 4 -7 2 -12 -4 -12 -6 0 -8 -5 -4 -12 10
-16 13 -48 4 -48 -10 0 -6 -44 5 -52 6 -5 5 -8 -3 -8 -8 0 -10 -5 -6 -12 10
-16 13 -48 4 -48 -9 0 -6 -32 4 -48 4 -7 2 -12 -4 -12 -6 0 -8 -5 -4 -12 10
-16 13 -48 4 -48 -10 0 -6 -44 5 -52 6 -5 5 -8 -3 -8 -8 0 -10 -5 -6 -12 10
-16 13 -48 4 -48 -8 0 -6 -37 3 -46 3 -4 2 -15 -4 -25 -7 -13 -6 -19 1 -19 7
0 8 -6 0 -19 -7 -14 -7 -22 0 -26 8 -5 7 -11 -1 -21 -9 -11 -9 -14 1 -14 10 0
10 -3 1 -14 -8 -10 -9 -16 -1 -21 7 -4 7 -12 0 -26 -8 -13 -7 -19 0 -19 7 0 8
-6 0 -19 -7 -14 -7 -22 0 -26 8 -5 7 -11 -1 -21 -9 -11 -9 -14 1 -14 9 0 10
-3 1 -13 -8 -10 -7 -17 1 -25 9 -9 9 -12 -1 -12 -7 0 -9 -5 -5 -12 10 -16 13
-48 4 -48 -10 0 -6 -44 5 -52 6 -5 5 -8 -3 -8 -8 0 -10 -5 -6 -12 10 -16 13
-48 4 -48 -8 0 -6 -37 3 -46 4 -4 2 -13 -4 -21 -9 -9 -8 -13 0 -13 8 0 9 -5 2
-18 -7 -13 -6 -23 1 -30 9 -9 9 -12 -1 -12 -7 0 -9 -5 -5 -12 10 -16 13 -48 4
-48 -10 0 -6 -44 5 -52 6 -5 5 -8 -3 -8 -8 0 -10 -5 -6 -12 10 -16 13 -48 4
-48 -8 0 -6 -37 3 -46 4 -4 2 -13 -4 -21 -6 -7 -7 -13 -2 -13 5 0 9 -9 9 -20
0 -11 -3 -20 -6 -20 -10 0 -6 -44 5 -52 6 -5 5 -8 -3 -8 -8 0 -10 -5 -6 -12
10 -16 13 -48 4 -48 -9 0 -6 -32 4 -48 4 -7 2 -12 -4 -12 -6 0 -8 -5 -4 -12
10 -16 13 -48 4 -48 -10 0 -6 -44 5 -52 6 -5 5 -8 -3 -8 -8 0 -10 -5 -6 -12
10 -16 13 -48 4 -48 -9 0 -6 -32 4 -48 4 -7 2 -12 -4 -12 -6 0 -8 -5 -4 -12
10 -16 13 -48 4 -48 -10 0 -6 -44 5 -52 6 -5 5 -8 -3 -8 -8 0 -10 -5 -6 -12
11 -18 12 -48 2 -48 -5 0 -4 -9 2 -20 6 -11 7 -20 2 -20 -12 0 -9 -43 3 -52 6
-5 5 -8 -3 -8 -8 0 -10 -5 -6 -12 10 -16 13 -48 4 -48 -9 0 -6 -32 4 -48 4 -7
2 -12 -4 -12 -6 0 -8 -5 -4 -12 10 -16 13 -48 4 -48 -10 0 -6 -44 5 -52 6 -5
5 -8 -3 -8 -8 0 -10 -5 -6 -12 10 -16 13 -48 4 -48 -9 0 -6 -32 4 -48 4 -7 2
-12 -4 -12 -6 0 -8 -5 -4 -12 10 -16 13 -48 4 -48 -10 0 -6 -44 5 -52 6 -5 5
-8 -3 -8 -8 0 -10 -5 -6 -12 10 -16 13 -48 4 -48 -3 0 -6 -9 -6 -20 0 -11 4
-20 9 -20 5 0 4 -7 -4 -16 -7 -8 -21 -13 -31 -11 -10 3 -18 1 -18 -5 0 -5 -5
-6 -12 -2 -16 10 -108 11 -108 1 0 -5 -5 -5 -12 -1 -17 11 -78 12 -78 1 0 -5
-7 -4 -15 3 -11 9 -15 9 -15 1 0 -7 -5 -9 -12 -5 -16 10 -88 11 -88 1 0 -4 -5
-5 -12 -1 -18 11 -81 6 -89 -8 -5 -7 -6 -28 -3 -46 4 -26 2 -32 -7 -27 -8 6
-10 4 -4 -5 11 -18 13 -320 1 -313 -5 4 -6 0 -1 -7 5 -8 9 -63 9 -124 1 -67 5
-111 11 -111 6 0 15 -4 22 -8 6 -4 14 -3 18 2 3 6 15 7 29 1 12 -4 29 -4 36 0
8 5 22 4 32 -1 10 -5 18 -6 18 -1 0 5 7 9 15 9 8 0 15 -5 15 -11 0 -6 4 -6 11
1 7 7 20 8 34 3 12 -4 28 -4 35 0 8 5 22 4 32 -1 10 -5 18 -6 18 -1 0 5 7 9
15 9 8 0 15 -5 15 -10 0 -5 7 -4 15 3 11 9 15 9 15 1 0 -9 5 -9 20 -1 14 8 20
8 20 0 0 -7 6 -8 17 -1 9 5 26 5 38 1 12 -5 28 -4 35 0 8 5 22 4 32 -1 10 -5
18 -6 18 -1 0 5 7 9 15 9 8 0 15 -5 15 -10 0 -5 7 -4 15 3 11 9 15 9 15 1 0
-9 5 -9 20 -1 14 8 20 8 20 0 0 -7 6 -8 17 -1 9 5 26 5 38 1 12 -5 28 -4 35 0
8 5 22 4 32 -1 10 -5 18 -6 18 -1 0 5 7 9 15 9 8 0 15 -4 15 -9 0 -5 6 -6 13
-1 20 12 37 12 37 0 0 -7 5 -5 10 3 5 8 10 10 10 4 0 -6 7 -11 15 -11 8 0 15
3 15 7 0 4 7 7 15 7 8 0 15 -5 15 -11 0 -6 5 -4 10 4 5 8 10 10 10 4 0 -6 7
-11 15 -11 8 0 15 3 15 7 0 4 7 7 15 7 8 0 15 -5 15 -11 0 -6 5 -4 10 4 5 8
10 10 10 4 0 -6 7 -11 15 -11 8 0 15 3 15 7 0 4 7 7 15 7 8 0 15 -5 15 -11 0
-6 5 -4 10 4 5 8 10 10 10 4 0 -6 7 -11 15 -11 8 0 15 3 15 7 0 4 7 7 15 7 8
0 15 -5 15 -11 0 -6 5 -4 10 4 5 8 10 10 10 4 0 -6 7 -11 15 -11 8 0 15 3 15
7 0 4 7 7 15 7 8 0 15 -5 15 -11 0 -6 5 -4 10 4 5 8 10 10 10 4 0 -6 7 -11 15
-11 8 0 15 3 15 7 0 4 7 7 15 7 8 0 15 -5 15 -11 0 -6 5 -4 10 4 5 8 10 10 10
3 0 -12 18 -12 39 1 8 5 16 3 22 -5 7 -12 9 -11 9 1 0 12 2 12 9 2 4 -8 12
-14 16 -14 4 0 12 6 16 14 7 10 9 10 9 0 0 -10 5 -10 20 -2 14 8 20 8 20 0 0
-7 6 -8 17 -1 9 5 26 5 38 1 12 -5 28 -4 35 0 8 5 22 4 32 -1 10 -5 18 -6 18
-1 0 5 7 9 15 9 8 0 15 -5 15 -10 0 -5 7 -4 15 3 11 9 15 9 15 1 0 -9 5 -9 20
-1 14 8 20 8 20 0 0 -7 6 -8 17 -1 9 5 26 5 38 1 12 -5 28 -4 35 0 8 5 22 4
32 -1 10 -5 18 -6 18 -1 0 5 7 9 15 9 8 0 15 -5 15 -10 0 -5 7 -4 15 3 11 9
15 9 15 1 0 -9 5 -9 20 -1 14 8 20 8 20 0 0 -7 6 -8 17 -1 9 5 26 5 38 1 12
-5 28 -4 35 0 8 5 22 4 32 -1 10 -5 18 -6 18 -1 0 5 7 9 15 9 8 0 15 -5 15
-10 0 -5 7 -4 15 3 11 9 15 9 15 1 0 -9 5 -9 20 -1 14 8 20 8 20 0 0 -7 6 -8
17 -1 9 5 26 5 38 1 12 -5 28 -4 35 0 8 5 22 4 32 -1 10 -5 18 -6 18 -1 0 5 7
9 15 9 8 0 15 -5 15 -10 0 -5 7 -4 15 3 11 9 15 9 15 1 0 -9 5 -9 20 -1 14 8
20 8 20 0 0 -7 6 -8 17 -1 9 5 26 5 38 1 12 -5 28 -4 35 0 8 5 22 4 32 -1 10
-5 18 -6 18 -1 0 5 7 9 15 9 8 0 15 -5 15 -10 0 -5 7 -4 15 3 11 9 15 9 15 1
0 -9 5 -9 20 -1 14 8 20 8 20 0 0 -6 4 -8 10 -5 20 12 50 14 50 2 0 -7 4 -6
10 3 5 8 10 10 10 4 0 -6 7 -11 15 -11 8 0 15 3 15 7 0 4 7 7 15 7 8 0 15 -5
15 -11 0 -6 5 -4 10 4 5 8 10 10 10 4 0 -6 7 -11 15 -11 8 0 15 3 15 7 0 4 7
7 15 7 8 0 15 -5 15 -11 0 -6 5 -4 10 4 5 8 10 10 10 4 0 -6 7 -11 15 -11 8 0
15 3 15 7 0 4 7 7 15 7 8 0 15 -5 15 -11 0 -6 5 -4 10 4 5 8 10 10 10 4 0 -6
7 -11 15 -11 8 0 15 3 15 7 0 4 7 7 15 7 8 0 15 -5 15 -11 0 -6 5 -4 10 4 5 8
10 10 10 4 0 -6 7 -11 15 -11 8 0 15 3 15 7 0 4 7 7 15 7 8 0 15 -5 15 -11 0
-6 5 -4 10 4 5 8 10 10 10 4 0 -6 7 -11 15 -11 8 0 15 3 15 7 0 4 7 7 15 7 8
0 15 -5 15 -11 0 -6 5 -4 10 4 5 8 10 10 10 4 0 -6 7 -11 15 -11 8 0 15 3 15
7 0 4 7 7 15 7 8 0 15 -5 15 -11 0 -6 5 -4 10 4 5 8 10 10 10 4 0 -6 7 -11 15
-11 8 0 15 4 15 8 0 5 11 5 23 0 13 -5 30 -5 37 -1 8 5 22 4 32 -1 10 -5 18
-6 18 -1 0 5 7 9 15 9 8 0 15 -5 15 -10 0 -5 7 -4 15 3 11 9 15 9 15 1 0 -9 5
-9 20 -1 14 8 20 8 20 0 0 -7 6 -8 17 -1 9 5 26 5 38 1 12 -5 28 -4 35 0 8 5
22 4 32 -1 10 -5 18 -6 18 -1 0 5 7 9 15 9 8 0 15 -5 15 -10 0 -5 7 -4 15 3
11 9 15 9 15 1 0 -9 5 -9 20 -1 14 8 20 8 20 0 0 -7 6 -8 17 -1 9 5 26 5 38 1
12 -5 28 -4 35 0 8 5 22 4 32 -1 10 -5 18 -6 18 -1 0 5 7 9 15 9 8 0 15 -5 15
-11 0 -6 4 -6 11 1 7 7 20 8 34 3 12 -4 28 -4 35 0 8 5 22 4 32 -1 10 -5 18
-6 18 -1 0 5 7 9 15 9 8 0 15 -5 15 -10 0 -5 7 -4 15 3 11 9 15 9 15 1 0 -9 5
-9 20 -1 13 7 20 7 20 1 0 -7 9 -7 23 -2 12 4 27 7 32 5 6 -3 10 22 11 60 0
36 -3 63 -8 60 -12 -7 4 30 16 38 8 5 7 8 -1 8 -6 0 -10 8 -8 18 1 9 -2 22 -7
29 -5 7 -5 13 0 17 5 3 8 26 7 51 -2 32 0 43 8 39 9 -5 9 -3 0 6 -6 7 -9 19
-6 28 4 10 2 13 -5 8 -8 -5 -10 -2 -6 8 3 9 11 13 17 9 6 -4 7 -1 1 8 -11 18
-14 140 -3 133 5 -3 6 2 3 10 -3 9 -11 13 -18 9 -8 -5 -8 -3 0 8 13 18 12 94
-1 94 -5 0 -16 4 -22 8 -8 5 -13 4 -13 -3 0 -6 -5 -8 -12 -4 -16 10 -108 11
-108 1 0 -5 -5 -5 -12 -1 -17 11 -78 12 -78 1 0 -5 -7 -4 -15 3 -11 9 -15 9
-15 1 0 -7 -5 -9 -12 -5 -16 10 -108 11 -108 1 0 -5 -5 -5 -12 -1 -17 11 -78
12 -78 1 0 -5 -7 -4 -15 3 -11 9 -15 9 -15 1 0 -7 -5 -9 -12 -5 -16 10 -108
11 -108 1 0 -5 -5 -5 -12 -1 -17 11 -78 12 -78 1 0 -5 -7 -4 -15 3 -11 9 -15
9 -15 1 0 -7 -5 -9 -12 -5 -16 10 -108 11 -108 1 0 -5 -5 -5 -12 -1 -17 11
-78 12 -78 1 0 -5 -7 -4 -15 3 -11 9 -15 9 -15 1 0 -7 -5 -9 -12 -5 -16 10
-108 11 -108 1 0 -5 -5 -5 -12 -1 -17 11 -78 12 -78 1 0 -5 -7 -4 -15 3 -11 9
-15 9 -15 1 0 -7 -5 -9 -12 -5 -16 10 -108 11 -108 1 0 -5 -5 -5 -12 -1 -17
11 -78 12 -78 1 0 -5 -7 -4 -15 3 -11 9 -15 9 -15 1 0 -7 -5 -9 -12 -5 -16 10
-108 11 -108 1 0 -5 -5 -5 -12 -1 -17 11 -78 12 -78 1 0 -5 -7 -4 -15 3 -11 9
-15 9 -15 1 0 -7 -5 -9 -12 -5 -16 10 -108 11 -108 1 0 -5 -5 -5 -12 -1 -17
11 -78 12 -78 1 0 -5 -7 -4 -15 3 -11 9 -15 9 -15 1 0 -7 -5 -9 -12 -5 -16 10
-108 11 -108 1 0 -5 -5 -5 -12 -1 -17 11 -78 12 -78 1 0 -5 -7 -4 -15 3 -11 9
-15 9 -15 1 0 -7 -5 -9 -12 -5 -16 10 -108 11 -108 1 0 -5 -5 -5 -12 -1 -17
11 -78 12 -78 1 0 -5 -7 -4 -15 3 -11 9 -15 9 -15 1 0 -7 -5 -9 -12 -5 -16 10
-108 11 -108 1 0 -5 -5 -5 -12 -1 -17 11 -78 12 -78 1 0 -5 -7 -4 -15 3 -11 9
-15 9 -15 1 0 -7 -5 -9 -12 -5 -16 10 -108 11 -108 1 0 -5 -5 -5 -12 -1 -17
11 -78 12 -78 1 0 -5 -7 -4 -15 3 -11 9 -15 9 -15 1 0 -7 -5 -9 -12 -5 -16 10
-108 11 -108 1 0 -5 -5 -5 -12 -1 -14 9 -78 12 -78 5 0 -4 -11 -6 -24 -6 -13
0 -23 2 -21 6 2 3 0 22 -5 42 -4 20 -5 37 -1 37 11 0 7 54 -4 62 -6 5 -5 8 2
8 9 0 10 7 3 25 -5 14 -6 25 -2 25 4 0 7 18 7 40 0 22 -3 40 -7 40 -4 0 -5 7
-2 15 9 23 10 305 1 305 -4 0 -4 7 1 16 5 8 6 35 2 60 -4 24 -4 44 -1 44 11 0
7 54 -4 62 -6 5 -5 8 2 8 9 0 10 7 3 25 -5 14 -6 25 -2 25 4 0 7 18 7 40 0 22
-3 40 -7 40 -4 0 -5 7 -2 15 9 22 10 305 2 305 -4 0 -5 7 -2 14 9 24 10 226 1
226 -5 0 -5 5 -2 11 11 17 11 89 0 93 -5 3 -4 5 2 5 9 1 10 8 3 26 -5 14 -6
25 -2 25 4 0 7 18 7 40 0 22 -4 40 -8 40 -5 0 -5 5 -2 11 11 17 11 89 0 93 -5
3 -4 5 2 5 9 1 10 8 3 26 -5 14 -6 25 -2 25 11 0 8 74 -3 82 -6 5 -5 8 2 8 9
0 10 7 3 25 -7 18 -6 25 3 25 8 0 8 3 -2 9 -9 6 -10 10 -2 12 9 3 9 12 2 32
-6 15 -7 27 -2 27 9 0 5 55 -4 71 -4 5 0 9 7 9 10 0 10 2 -1 9 -9 6 -10 10 -2
12 9 3 9 12 2 32 -6 15 -7 27 -3 27 4 0 7 41 7 90 0 50 -4 90 -8 90 -5 0 -5 5
-2 11 11 17 11 89 0 93 -5 3 -4 5 2 5 9 1 10 8 3 26 -5 14 -6 25 -2 25 4 0 7
18 7 40 0 22 -4 40 -8 40 -5 0 -5 5 -2 11 11 17 11 89 0 93 -5 3 -4 5 2 5 9 1
10 8 3 26 -5 14 -6 25 -2 25 11 0 8 74 -3 82 -6 5 -5 8 2 8 9 0 10 7 3 25 -7
18 -6 25 3 25 8 0 8 3 -2 9 -9 6 -10 10 -2 12 9 3 9 12 2 32 -6 15 -7 27 -2
27 9 0 5 55 -4 71 -4 5 0 9 7 9 10 0 10 2 -1 9 -9 6 -10 10 -2 12 9 3 9 12 2
32 -6 15 -7 27 -3 27 4 0 7 47 6 104 0 58 3 104 7 103 3 -1 18 10 32 25 14 15
28 24 31 21 3 -4 6 -2 6 4 0 14 189 203 203 203 6 0 8 3 5 6 -7 7 130 144 145
144 5 0 8 3 5 6 -7 7 151 164 165 164 6 0 8 2 5 5 -3 3 29 41 71 84 42 42 93
96 113 119 21 23 42 42 48 42 5 0 9 3 8 8 -1 4 10 20 25 36 15 16 27 25 27 20
0 -5 7 2 16 14 12 17 19 20 29 12 9 -7 15 -7 19 -1 7 10 37 7 58 -5 7 -4 8 -3
4 4 -8 13 40 12 61 -1 6 -4 14 0 17 9 5 13 9 14 21 4 7 -6 22 -10 32 -8 10 1
23 -1 30 -5 6 -4 14 -3 17 2 3 4 24 6 47 4 33 -4 40 -2 34 8 -5 8 1 6 12 -4
12 -10 24 -14 27 -9 3 5 24 7 47 5 33 -4 40 -2 34 8 -5 8 1 6 12 -4 13 -11 23
-14 27 -8 7 10 37 8 58 -5 7 -4 8 -3 4 4 -8 13 40 12 61 -1 6 -4 14 0 17 9 5
13 9 14 21 4 9 -7 18 -10 22 -7 3 4 15 2 26 -4 14 -8 18 -8 13 0 -8 12 41 10
61 -2 6 -4 14 0 17 9 5 13 9 14 21 4 7 -6 22 -10 32 -8 10 1 23 -1 30 -5 6 -4
14 -3 17 2 3 4 24 6 47 4 33 -4 40 -2 34 8 -5 8 1 6 12 -4 12 -11 24 -14 27
-9 3 6 14 9 24 7 9 -2 23 -4 31 -4 8 -1 11 -4 8 -8 -4 -3 -2 -12 4 -19 7 -8 7
-14 -1 -19 -7 -4 -7 -12 0 -24 5 -10 6 -21 3 -25 -11 -11 -10 -66 1 -66 6 0 5
-4 -2 -9 -8 -4 -14 -12 -14 -16 0 -4 6 -12 14 -16 7 -5 8 -9 3 -9 -14 0 -14
-63 0 -72 6 -5 5 -11 -3 -17 -8 -4 -14 -12 -14 -16 0 -4 6 -12 14 -16 7 -5 8
-9 2 -9 -13 0 -13 -72 1 -82 6 -5 5 -8 -3 -8 -9 0 -10 -5 -4 -17 5 -10 10 -31
10 -48 1 -16 3 -45 6 -62 4 -28 1 -33 -15 -33 -10 0 -19 -5 -19 -11 0 -5 -4
-7 -10 -4 -5 3 -16 3 -22 -2 -7 -4 -16 -8 -19 -8 -3 0 -17 -8 -30 -18 -13 -10
-28 -17 -32 -17 -5 1 -17 -8 -27 -20 -10 -12 -21 -21 -24 -21 -3 1 -6 -1 -6
-5 1 -3 -9 -14 -22 -24 -13 -11 -20 -19 -15 -20 4 0 -1 -9 -10 -19 -35 -38
-42 -49 -36 -55 4 -3 0 -6 -7 -6 -7 0 -10 -3 -7 -7 4 -3 2 -12 -4 -20 -6 -7
-9 -13 -6 -13 3 0 0 -15 -7 -32 -7 -18 -13 -45 -12 -60 1 -14 -1 -25 -5 -23
-3 2 -5 -11 -5 -30 1 -19 5 -35 9 -35 4 0 3 -9 -3 -20 -8 -15 -8 -20 1 -20 6
0 9 -7 6 -15 -4 -8 -2 -17 4 -21 6 -3 8 -11 6 -17 -2 -7 5 -27 15 -45 10 -18
18 -39 18 -48 0 -8 5 -12 10 -9 6 3 10 -1 10 -9 0 -9 3 -16 8 -16 4 0 12 -10
17 -22 6 -13 17 -22 24 -20 7 1 10 -2 7 -7 -4 -5 6 -19 21 -30 16 -11 33 -25
40 -31 7 -5 15 -10 19 -10 3 0 19 -9 35 -21 20 -14 29 -16 29 -7 0 9 3 9 8 2
9 -13 68 -34 76 -27 3 3 11 2 18 -3 10 -8 113 -11 113 -4 0 2 35 10 58 12 9 1
17 5 17 9 0 4 6 7 13 6 34 -1 48 4 41 15 -5 8 -2 9 9 5 10 -3 17 -2 17 4 0 6
5 7 10 4 6 -3 10 -1 10 5 0 6 11 15 25 20 14 5 25 14 25 20 0 5 7 10 16 10 8
0 13 4 9 9 -3 5 4 12 15 16 11 4 18 11 15 16 -4 5 -1 9 5 9 6 0 8 5 5 10 -3 6
-2 10 2 10 12 0 48 61 49 84 1 10 6 21 12 25 20 13 32 153 18 221 -5 19 -9 40
-10 45 -1 6 -7 20 -14 31 -6 12 -8 24 -5 28 3 3 1 6 -5 6 -7 0 -11 3 -10 8 4
13 -49 82 -57 74 -5 -4 -5 -2 -2 4 3 6 -7 25 -23 43 -17 18 -30 27 -30 20 0
-7 -8 -3 -17 8 -21 24 -92 61 -125 66 -21 4 -23 10 -25 66 -1 34 1 60 5 57 12
-7 9 148 -2 156 -7 5 -7 8 -1 8 6 0 10 28 9 68 0 37 4 73 10 81 8 11 8 13 0 8
-7 -4 -15 0 -18 9 -3 8 -2 13 3 10 4 -3 7 14 6 37 -1 23 3 48 9 56 8 11 8 13
0 8 -7 -4 -15 0 -18 9 -3 8 -2 12 4 9 6 -3 10 -2 10 3 0 14 37 21 48 10 6 -6
12 -6 16 0 3 5 24 7 47 5 33 -4 40 -2 34 8 -5 8 1 6 12 -4 12 -10 24 -14 27
-9 3 5 24 7 47 5 33 -4 40 -2 34 8 -5 8 1 6 12 -4 12 -10 23 -14 26 -10 6 10
48 10 64 0 7 -4 14 -3 17 2 3 4 24 6 47 4 33 -4 40 -2 34 8 -5 8 1 6 12 -4 12
-10 24 -14 27 -9 3 5 24 7 47 5 33 -4 40 -2 34 8 -5 8 1 6 12 -4 13 -11 23
-14 27 -8 6 9 43 7 74 -4 8 -3 10 0 6 7 -5 7 1 9 20 6 15 -3 24 -3 22 0 -3 2
-1 14 5 25 8 15 8 18 -1 12 -9 -6 -9 -3 -1 13 8 15 8 21 -1 24 -7 3 -8 10 -1
23 5 11 7 31 3 45 -4 14 -3 33 3 44 6 13 6 16 -3 11 -9 -6 -9 -2 -1 14 9 16 9
21 0 21 -7 0 -8 7 -4 18 4 9 7 28 6 42 -6 74 -5 90 4 94 5 3 4 5 -3 5 -10 1
-10 6 -2 21 7 12 7 20 1 20 -11 0 -9 39 3 58 4 7 2 12 -4 12 -8 0 -7 6 1 21 8
16 8 20 -1 14 -9 -6 -9 -2 -1 14 7 11 8 21 3 21 -4 0 -7 13 -6 29 1 15 -1 32
-5 37 -9 13 -281 12 -273 -1 4 -6 1 -6 -9 1 -17 13 -437 13 -459 0 -8 -5 -12
-6 -8 -1 5 5 0 14 -11 21 -10 7 -21 31 -25 54 -3 22 -11 40 -16 40 -6 0 -9 3
-8 8 3 14 -14 42 -23 36 -5 -3 -9 -1 -9 4 0 22 -27 16 -55 -11z m-2023 -802
c5 -6 8 -5 8 3 0 6 7 12 16 12 9 0 12 -5 8 -12 -6 -10 -4 -10 7 -3 14 11 285
12 295 2 7 -7 -135 -147 -148 -147 -5 0 -7 -3 -5 -7 2 -5 -52 -63 -120 -130
-68 -67 -123 -119 -123 -115 0 4 -5 0 -10 -8 -8 -11 -9 0 -7 38 2 28 -1 52 -6
52 -4 0 -5 5 -1 11 10 16 11 89 1 89 -5 0 -5 5 -1 12 4 6 6 56 5 110 -1 65 2
97 9 93 5 -3 10 -2 10 4 0 13 53 9 62 -4z m2138 -806 c4 -6 10 -10 14 -10 17
3 25 -2 58 -33 39 -37 71 -89 61 -100 -4 -3 -2 -6 4 -6 5 0 9 -17 8 -37 -1
-21 3 -41 9 -45 6 -4 3 -14 -8 -27 -11 -12 -16 -21 -12 -21 4 0 -3 -18 -15
-40 -12 -21 -26 -37 -31 -34 -4 3 -8 -2 -8 -10 0 -9 -7 -16 -16 -16 -8 0 -13
-4 -10 -9 6 -9 -14 -21 -43 -27 -8 -1 -17 -6 -20 -11 -3 -5 -17 -8 -31 -7 -14
1 -31 -3 -37 -8 -9 -7 -13 -7 -13 0 0 6 -11 9 -25 7 -14 -1 -25 2 -25 7 0 6
-7 8 -15 4 -8 -3 -15 -1 -15 4 0 6 -9 10 -21 10 -11 0 -18 3 -16 8 4 9 -40 52
-47 44 -3 -3 -6 2 -6 11 0 9 -4 17 -9 17 -8 0 -24 32 -26 52 0 3 -3 9 -7 13
-3 4 -4 18 -2 31 2 13 0 24 -6 24 -7 0 -8 5 -3 13 4 6 8 17 10 22 1 6 4 21 7
34 7 30 34 71 47 71 6 0 8 3 6 8 -2 4 4 15 15 25 10 9 18 14 18 10 0 -5 5 -1
10 7 5 8 13 15 17 16 4 0 15 3 23 7 44 17 149 15 160 -4z"/>
</g>
</svg>
